<svg width="50" height="33" viewBox="0 0 50 33" fill="none" xmlns="http://www.w3.org/2000/svg">
<path d="M0.95 12.02L8.465 6.35V27.275H0.86V32H21.56V27.275H14.18V0.949997H8.465L0.95 6.44V12.02ZM49.4263 16.475C49.4263 6.485 45.6913 0.454998 37.0513 0.454998C28.4113 0.454998 24.7213 6.485 24.7213 16.475C24.7213 26.555 28.4113 32.495 37.0513 32.495C45.6913 32.495 49.4263 26.555 49.4263 16.475ZM43.4413 18.185C43.4413 24.125 42.0013 27.95 37.0513 27.95C32.1463 27.905 30.6613 24.125 30.6613 18.185V14.765C30.6613 8.96 32.1463 5 37.0513 5C42.0013 5 43.4413 9.005 43.4413 14.765V18.185Z" fill="#333333"/>
</svg>
