<svg width="75" height="62" viewBox="0 0 75 62" fill="none" xmlns="http://www.w3.org/2000/svg">
<path d="M60.6753 16.3379C60.3603 12.3237 58.6879 8.53638 55.9334 5.59941C53.1789 2.66244 49.5065 0.7509 45.5207 0.179442C41.5349 -0.392015 37.4733 0.410673 34.0046 2.45539C30.5358 4.50011 27.8666 7.66497 26.4364 11.429C25.3159 11.0984 24.1534 10.9317 22.9851 10.9339C19.8766 10.9367 16.8845 12.1169 14.6112 14.2371C12.338 16.3572 10.9524 19.2599 10.7333 22.3607C7.3292 23.3171 4.38336 25.4675 2.43504 28.4183C0.486718 31.369 -0.333779 34.9227 0.123697 38.4289C0.581173 41.9351 2.28603 45.1592 4.92624 47.5113C7.56645 49.8633 10.9654 51.1859 14.5009 51.2369H21.8437C22.2084 51.2369 22.5582 51.092 22.8161 50.8341C23.074 50.5762 23.2188 50.2265 23.2188 49.8618C23.2188 49.4971 23.074 49.1474 22.8161 48.8895C22.5582 48.6316 22.2084 48.4867 21.8437 48.4867H14.5009C11.5639 48.4133 8.75657 47.2617 6.61409 45.2514C4.47161 43.2411 3.14381 40.5127 2.8838 37.5862C2.62378 34.6598 3.44972 31.74 5.20421 29.3835C6.95869 27.0269 9.51902 25.3984 12.3971 24.8083C12.7174 24.7497 13.0066 24.5793 13.2131 24.3275C13.4196 24.0757 13.53 23.7588 13.5247 23.4332C13.5247 23.4332 13.5247 23.2682 13.5247 23.2545C13.5458 20.7443 14.5468 18.3417 16.3141 16.559C18.0814 14.7763 20.4752 13.7545 22.9851 13.7116C23.8789 13.7142 24.7678 13.8438 25.6252 14.0966C25.4999 14.7376 25.4081 15.3848 25.3502 16.0354C25.3197 16.3982 25.4343 16.7582 25.6688 17.0366C25.9034 17.315 26.2388 17.489 26.6014 17.5205H26.7115C27.0579 17.5216 27.3919 17.3919 27.6469 17.1574C27.9018 16.9228 28.0588 16.6007 28.0865 16.2554C28.1449 15.5851 28.2459 14.9191 28.389 14.2616C28.4028 14.1658 28.4028 14.0686 28.389 13.9728C28.4816 13.8588 28.5516 13.7281 28.5953 13.5878C29.5498 10.2741 31.6187 7.3914 34.4526 5.42659C37.2865 3.46177 40.7118 2.53529 44.1497 2.8036C47.5877 3.07192 50.8277 4.51858 53.3225 6.89927C55.8172 9.27996 57.4139 12.4488 57.8427 15.8704C57.1175 15.829 56.3901 15.8566 55.6701 15.9529C55.4896 15.9764 55.3154 16.0352 55.1575 16.126C54.9997 16.2168 54.8613 16.3378 54.7502 16.4821C54.5258 16.7735 54.4264 17.142 54.4739 17.5067C54.5213 17.8714 54.7116 18.2023 55.003 18.4267C55.2944 18.651 55.663 18.7504 56.0277 18.703C56.9985 18.5838 57.982 18.6162 58.9428 18.7993H59.094C62.6177 19.4578 65.7888 21.3574 68.0319 24.1536C70.275 26.9498 71.4417 30.4573 71.3203 34.04C71.1989 37.6227 69.7974 41.0432 67.3701 43.6811C64.9428 46.319 61.6505 47.9996 58.0903 48.418L55.4089 48.528H50.7062C50.3415 48.528 49.9918 48.6729 49.7339 48.9308C49.476 49.1886 49.3311 49.5384 49.3311 49.9031C49.3311 50.2678 49.476 50.6175 49.7339 50.8754C49.9918 51.1332 50.3415 51.2781 50.7062 51.2781H55.4639L58.2965 51.1681C62.4356 50.7155 66.2835 48.8213 69.1665 45.8171C72.0495 42.813 73.7838 38.8904 74.0658 34.7362C74.3478 30.5821 73.1594 26.4611 70.7088 23.0949C68.2582 19.7288 64.7015 17.3319 60.6616 16.3242L60.6753 16.3379Z" fill="#E30611"/>
<path d="M36.6338 29.1952C36.3867 28.9894 36.0753 28.8767 35.7537 28.8767C35.4322 28.8767 35.1208 28.9894 34.8737 29.1952L26.6234 36.0704C26.3426 36.3038 26.166 36.6392 26.1324 37.0028C26.0989 37.3664 26.2112 37.7285 26.4446 38.0093C26.678 38.2901 27.0134 38.4667 27.377 38.5002C27.7406 38.5337 28.1026 38.4214 28.3834 38.188L34.3787 33.1828L34.3787 60.5052C34.3787 60.8699 34.5236 61.2196 34.7814 61.4775C35.0393 61.7354 35.3891 61.8802 35.7537 61.8802C36.1184 61.8802 36.4682 61.7354 36.7261 61.4775C36.9839 61.2196 37.1288 60.8699 37.1288 60.5052L37.1288 33.1828L43.124 38.188C43.4049 38.4214 43.7669 38.5337 44.1305 38.5002C44.4941 38.4667 44.8295 38.2901 45.0629 38.0093C45.2963 37.7285 45.4086 37.3664 45.375 37.0028C45.3415 36.6392 45.1649 36.3038 44.8841 36.0704L36.6338 29.1952Z" fill="#E30611"/>
</svg>
