<svg width="32" height="32" viewBox="0 0 32 32" fill="none" xmlns="http://www.w3.org/2000/svg">
<path fill-rule="evenodd" clip-rule="evenodd" d="M16 32C24.8366 32 32 24.8366 32 16C32 7.16344 24.8366 0 16 0C7.16344 0 0 7.16344 0 16C0 24.8366 7.16344 32 16 32Z" fill="#BBC1C7"/>
<mask id="mask0" mask-type="alpha" maskUnits="userSpaceOnUse" x="0" y="0" width="32" height="32">
<path fill-rule="evenodd" clip-rule="evenodd" d="M16 32C24.8366 32 32 24.8366 32 16C32 7.16344 24.8366 0 16 0C7.16344 0 0 7.16344 0 16C0 24.8366 7.16344 32 16 32Z" fill="white"/>
</mask>
<g mask="url(#mask0)">
<path fill-rule="evenodd" clip-rule="evenodd" d="M10.361 17.7818C10.3148 17.3434 9.30768 17.3419 9.11786 15.7413C9.016 14.8822 9.42111 14.3985 9.66649 14.2465C9.66649 14.2465 9.05535 12.8601 9.05535 11.4851C9.05535 7.39478 11.0901 4 16 4C18.6506 4 19.4724 5.87013 19.4724 5.87013C21.8405 5.87013 22.9447 8.45421 22.9447 11.4851C22.9447 12.9959 22.3336 14.2465 22.3336 14.2465C22.579 14.3985 22.9841 14.8822 22.8822 15.7413C22.6924 17.3419 22.0489 17.7473 21.6391 17.7818C21.4817 19.2742 19.9932 21.1858 19.4724 21.4645V23.9587C20.152 26.1574 23.6198 26.2144 26.366 27.6568C24.8 29 19.8739 31.6286 16 31.6286C12.1262 31.6286 7.60003 29.2 5.60229 27.6735C8.3535 26.2148 11.8454 26.1659 12.5277 23.9587V21.4645C12.0068 21.1881 10.5184 19.2765 10.361 17.7818Z" fill="white"/>
<path d="M31.25 16C31.25 24.4223 24.4223 31.25 16 31.25C7.57766 31.25 0.75 24.4223 0.75 16C0.75 7.57766 7.57766 0.75 16 0.75C24.4223 0.75 31.25 7.57766 31.25 16Z" stroke="#BBC1C7" stroke-width="1.5"/>
</g>
</svg>
