<svg width="64" height="16" viewBox="0 0 64 16" fill="none" xmlns="http://www.w3.org/2000/svg">
<path fill-rule="evenodd" clip-rule="evenodd" d="M0 9.68896C0 12.8312 1.75618 16 5.68883 16C9.61791 16 11.3776 12.8312 11.3776 9.68896C11.3776 7.54257 10.656 5.07094 9.45154 3.07454C8.28023 1.1467 6.87288 0 5.68883 0C4.50142 0 3.09343 1.1467 1.93229 3.07454C0.722141 5.07094 0 7.54257 0 9.68896Z" fill="#E30611"/>
<path fill-rule="evenodd" clip-rule="evenodd" d="M40.3899 4.71419H36.4077V0.857151H48.6386V4.71419H44.6565V15.1428H40.3899V4.71419Z" fill="#E30611"/>
<path fill-rule="evenodd" clip-rule="evenodd" d="M57.7402 4.71436H63.9983V0.857151H57.7407C51.9908 0.857151 48.9211 3.7286 48.9211 8.00008C48.9211 12.2715 51.9908 15.143 57.7407 15.143H63.9983V11.2858H57.7402C55.0797 11.2858 53.3299 10.3304 53.3299 8.00008C53.3299 5.66972 55.0797 4.71436 57.7402 4.71436Z" fill="#E30611"/>
<path fill-rule="evenodd" clip-rule="evenodd" d="M25.4564 9.38416L27.731 0.857151H35.2707V15.143H31.0039V3.51559L27.9024 15.143H23.0104L19.9109 3.52298L19.9108 15.143H15.6443V0.857151H23.1818L25.4564 9.38416Z" fill="#E30611"/>
</svg>
