<svg width="209" height="24" viewBox="0 0 209 24" fill="none" xmlns="http://www.w3.org/2000/svg">
<path d="M84.04 14.84C84.04 12.3 82.6 10.76 79.48 10.76H76.56V6.64H83.16V5.2H74.76V19H79.48C82.6 19 84.04 17.42 84.04 14.84ZM82.16 14.44V15.28C82.16 16.72 81.26 17.48 79.36 17.48H76.56V12.28H79.36C81.28 12.28 82.16 13.08 82.16 14.44ZM94.9937 19V9.04H92.8937L88.2937 17.18V9.04H86.5937V19H88.6937L93.2937 10.88V19H94.9937ZM101.543 14.5C102.983 14.5 103.743 14.9 103.743 15.96V16.26C103.743 17.34 102.963 17.86 101.443 17.86C99.7632 17.86 99.1632 17.22 99.0432 15.88H97.2632C97.3832 18.1 98.8232 19.2 101.443 19.2C104.123 19.2 105.523 18.1 105.523 16.1C105.523 15.18 105.003 14.1 103.383 13.74C104.783 13.36 105.243 12.44 105.243 11.52C105.243 9.9 103.963 8.84 101.503 8.84C98.9432 8.84 97.6632 9.84 97.4232 11.84H99.2032C99.3832 10.7 99.9832 10.18 101.483 10.18C102.743 10.18 103.463 10.62 103.463 11.46V11.86C103.463 12.72 102.763 13.16 101.543 13.16H100.183V14.5H101.543ZM116.166 19V9.04H114.466V13.2H109.666V9.04H107.966V19H109.666V14.56H114.466V19H116.166ZM123.08 17.86C121.26 17.86 120.32 16.64 120.32 14.62V13.82H127.34V13.4C127.34 10.34 125.82 8.84 123.08 8.84C119.98 8.84 118.54 10.74 118.54 14.02C118.54 17.3 119.96 19.2 123.08 19.2C125.46 19.2 126.98 18.2 127.34 16H125.64C125.42 17.4 124.4 17.86 123.08 17.86ZM123.06 10.18C124.64 10.18 125.36 10.92 125.52 12.56H120.36C120.56 10.92 121.38 10.18 123.06 10.18ZM137.648 16H135.948C135.748 17.42 134.848 17.86 133.508 17.86C131.828 17.86 130.908 16.8 130.908 14.64V13.4C130.908 11.32 131.748 10.18 133.508 10.18C134.808 10.18 135.708 10.66 135.888 12.12H137.588C137.348 9.66 135.788 8.84 133.508 8.84C130.508 8.84 129.128 10.68 129.128 14.04C129.128 17.48 130.568 19.2 133.508 19.2C135.768 19.2 137.308 18.3 137.648 16ZM147.353 9.04H144.733V19H146.333V10.7L149.153 17.76H151.173L153.973 10.54V19H155.673V9.04H153.073L150.253 16.32L147.353 9.04ZM158.102 16.32C158.102 18 159.202 19.2 161.502 19.2C162.922 19.2 164.082 18.68 164.822 17.64V19H166.422V12.58C166.422 9.98 164.982 8.84 162.462 8.84C160.002 8.84 158.622 9.98 158.442 12.04H160.142C160.282 10.7 161.142 10.18 162.462 10.18C163.942 10.18 164.722 10.74 164.722 12.56V13L161.882 13.28C159.202 13.54 158.102 14.4 158.102 16.32ZM161.802 17.94C160.522 17.94 159.802 17.44 159.802 16.5V16.06C159.802 14.96 160.502 14.58 161.962 14.42L164.722 14.14V15.14C164.722 17.06 163.402 17.94 161.802 17.94ZM170.989 23V17.6C171.669 18.64 172.769 19.2 174.289 19.2C177.189 19.2 178.549 17.26 178.549 14.02C178.549 10.78 177.169 8.84 174.289 8.84C172.709 8.84 171.569 9.48 170.889 10.62V9.04H169.289V23H170.989ZM173.869 17.86C172.009 17.86 170.989 16.7 170.989 14.62V13.26C171.029 11.32 172.029 10.18 173.869 10.18C175.749 10.18 176.769 11.38 176.769 13.4V14.62C176.769 16.7 175.749 17.86 173.869 17.86ZM182.593 19V14.6H183.713L187.233 19H189.313L185.193 13.88L188.853 9.04H186.993L183.793 13.26H182.593V9.04H180.893V19H182.593ZM194.679 17.86C192.859 17.86 191.919 16.64 191.919 14.62V13.82H198.939V13.4C198.939 10.34 197.419 8.84 194.679 8.84C191.579 8.84 190.139 10.74 190.139 14.02C190.139 17.3 191.559 19.2 194.679 19.2C197.059 19.2 198.579 18.2 198.939 16H197.239C197.019 17.4 195.999 17.86 194.679 17.86ZM194.659 10.18C196.239 10.18 196.959 10.92 197.119 12.56H191.959C192.159 10.92 192.979 10.18 194.659 10.18ZM208.174 10.38V9.04H199.874V10.38H203.174V19H204.874V10.38H208.174Z" fill="#E30611"/>
<path fill-rule="evenodd" clip-rule="evenodd" d="M0 13.689C0 16.8312 1.75618 20 5.68883 20C9.61791 20 11.3776 16.8312 11.3776 13.689C11.3776 11.5426 10.656 9.07094 9.45154 7.07454C8.28023 5.1467 6.87288 4 5.68883 4C4.50142 4 3.09343 5.1467 1.93229 7.07454C0.722141 9.07094 0 11.5426 0 13.689Z" fill="#E30611"/>
<path fill-rule="evenodd" clip-rule="evenodd" d="M40.3899 8.71419H36.4078V4.85715H48.6387V8.71419H44.6565V19.1428H40.3899V8.71419Z" fill="#E30611"/>
<path fill-rule="evenodd" clip-rule="evenodd" d="M57.7403 8.71436H63.9984V4.85715H57.7408C51.9909 4.85715 48.9213 7.7286 48.9213 12.0001C48.9213 16.2715 51.9909 19.143 57.7408 19.143H63.9984V15.2858H57.7403C55.0798 15.2858 53.3301 14.3304 53.3301 12.0001C53.3301 9.66972 55.0798 8.71436 57.7403 8.71436Z" fill="#E30611"/>
<path fill-rule="evenodd" clip-rule="evenodd" d="M25.4565 13.3842L27.7311 4.85715H35.2707V19.143H31.0039V7.51559L27.9025 19.143H23.0104L19.911 7.52298L19.9108 19.143H15.6443V4.85715H23.1818L25.4565 13.3842Z" fill="#E30611"/>
</svg>
