<svg width="72" height="21" viewBox="0 0 72 21" fill="none" xmlns="http://www.w3.org/2000/svg">
<path d="M3.84293 15.6273C3.51353 15.6273 3.23904 15.5613 2.99199 15.4625C2.74494 15.3635 2.5528 15.1987 2.38811 15.0668C2.19596 14.902 2.03126 14.7042 1.86657 14.5064V19.0888H0V7.55035H1.86657V8.63827C2.00381 8.44046 2.16851 8.27561 2.38811 8.07786C2.5528 7.94597 2.77239 7.81408 2.99199 7.7152C3.23904 7.61627 3.51353 7.55035 3.84293 7.55035C4.28212 7.55035 4.69386 7.64929 5.07817 7.84704C5.46242 8.04485 5.81929 8.34159 6.12124 8.70419C6.42318 9.06685 6.64277 9.49542 6.83492 9.98991C6.99959 10.4844 7.10943 11.0119 7.10943 11.6053C7.10943 12.1657 7.02707 12.7262 6.83492 13.2207C6.67021 13.7152 6.42318 14.1438 6.12124 14.5064C5.81929 14.869 5.48991 15.1658 5.07817 15.3635C4.69386 15.5284 4.28212 15.6273 3.84293 15.6273ZM3.51353 9.49542C3.29393 9.49542 3.07434 9.56134 2.88219 9.66027C2.69005 9.75915 2.4979 9.89104 2.36065 10.0888C2.2234 10.2536 2.08616 10.4844 2.00381 10.7482C1.92146 11.0119 1.86657 11.2756 1.86657 11.6053C1.86657 11.902 1.92146 12.1987 2.00381 12.4624C2.08616 12.7262 2.2234 12.924 2.36065 13.1218C2.52535 13.2866 2.69005 13.4515 2.88219 13.5503C3.07434 13.6493 3.29393 13.7152 3.51353 13.7152C3.73313 13.7152 3.95272 13.6493 4.14487 13.5503C4.33701 13.4515 4.52916 13.3196 4.66641 13.1218C4.80366 12.957 4.94089 12.7262 5.02324 12.4624C5.1056 12.1987 5.16048 11.935 5.16048 11.6053C5.16048 11.3086 5.1056 11.0119 5.02324 10.7482C4.94089 10.4844 4.80366 10.2867 4.66641 10.0888C4.50171 9.924 4.33701 9.75915 4.14487 9.66027C3.92527 9.52838 3.70567 9.49542 3.51353 9.49542Z" fill="#090F5A"/>
<path d="M12.954 14.7042C12.8168 14.869 12.6521 15.0339 12.4599 15.1658C12.2952 15.2646 12.1031 15.3635 11.8561 15.4625C11.609 15.5613 11.3345 15.5943 11.0326 15.5943C10.6483 15.5943 10.3189 15.5284 9.98944 15.3635C9.66005 15.1987 9.38553 14.968 9.16594 14.7042C8.94635 14.4075 8.75419 14.0779 8.61696 13.6493C8.47973 13.2537 8.4248 12.7592 8.4248 12.2646V7.5174H10.2914V12.0339C10.2914 12.4954 10.4012 12.858 10.6483 13.1218C10.8953 13.4185 11.1972 13.5503 11.5816 13.5503C11.9933 13.5503 12.3227 13.3856 12.5698 13.0888C12.8168 12.7921 12.954 12.3306 12.954 11.7042V7.5174H14.8207V15.5943H12.954V14.7042Z" fill="#090F5A"/>
<path d="M20.3654 10.0558C20.283 9.924 20.2007 9.82506 20.091 9.72619C19.9812 9.62731 19.8714 9.56134 19.7342 9.49542C19.597 9.4295 19.4597 9.39649 19.2676 9.39649C18.9932 9.39649 18.7737 9.46246 18.6639 9.5943C18.5542 9.72619 18.4443 9.85808 18.4443 10.0229C18.4443 10.1877 18.5267 10.3526 18.6639 10.4514C18.8011 10.5504 18.9932 10.6493 19.2402 10.7482C19.4597 10.8471 19.7068 10.946 19.9812 11.0449C20.2556 11.1437 20.5026 11.2756 20.7222 11.4405C20.9417 11.6053 21.1338 11.8361 21.2984 12.0998C21.4631 12.3636 21.518 12.7262 21.518 13.1547C21.518 13.4844 21.4631 13.8141 21.3533 14.1108C21.2436 14.4075 21.0515 14.6712 20.8319 14.869C20.6124 15.0998 20.3379 15.2646 19.9812 15.3965C19.6518 15.5284 19.2676 15.5943 18.8286 15.5943C18.3346 15.5943 17.9229 15.5284 17.5936 15.3635C17.2369 15.1987 16.9624 15.0339 16.7429 14.8361C16.4684 14.6383 16.2489 14.3745 16.0842 14.1108L17.1271 12.957C17.2369 13.1218 17.3741 13.2537 17.5113 13.3856C17.6485 13.4844 17.7857 13.5833 17.9504 13.6822C18.115 13.7482 18.3346 13.8141 18.5542 13.8141C18.856 13.8141 19.103 13.7482 19.2402 13.6163C19.3774 13.4844 19.4597 13.3196 19.4597 13.1218C19.4597 12.924 19.3774 12.7592 19.2402 12.6602C19.103 12.5614 18.9109 12.4624 18.6639 12.3636C18.4443 12.2646 18.1974 12.1657 17.9229 12.0669C17.6485 11.9679 17.4015 11.8361 17.182 11.6713C16.9624 11.5064 16.7703 11.2756 16.6056 11.0119C16.441 10.7482 16.3861 10.4185 16.3861 9.95695C16.3861 9.66027 16.441 9.36353 16.5782 9.06685C16.7155 8.77016 16.8801 8.50638 17.1271 8.27561C17.3741 8.04485 17.6485 7.84704 17.9504 7.7152C18.2797 7.58331 18.609 7.5174 18.9932 7.5174C19.3774 7.5174 19.7342 7.58331 20.0361 7.7152C20.3379 7.84704 20.5849 7.97893 20.7496 8.14378C20.9691 8.34159 21.1612 8.5394 21.3259 8.77016L20.3654 10.0558Z" fill="#090F5A"/>
<path d="M24.8421 8.67072C24.9793 8.47291 25.144 8.2751 25.3362 8.07736C25.5009 7.94546 25.693 7.81357 25.9401 7.68174C26.1871 7.54985 26.4616 7.51689 26.7635 7.51689C27.1478 7.51689 27.4772 7.58281 27.8066 7.74766C28.136 7.91251 28.4105 8.14327 28.63 8.43996C28.8496 8.73664 29.0418 9.0993 29.1791 9.52787C29.3163 9.95645 29.3712 10.4509 29.3712 10.9784V15.5938H27.5046V11.2751C27.5046 10.7806 27.3949 10.418 27.1478 10.1213C26.9008 9.82455 26.5988 9.69272 26.2146 9.69272C25.8028 9.69272 25.4734 9.85757 25.2264 10.1543C24.9793 10.4509 24.8421 10.9125 24.8421 11.5389V15.6268H22.9756V4.08832H24.8421V8.67072Z" fill="#090F5A"/>
<path d="M40.3501 11.4071V6.95654L37.7432 11.4071H40.3501Z" fill="#090F5A"/>
<path d="M44.1931 0H35.4093C33.5977 0 32.1154 1.78022 32.1154 3.95604V17.0439C32.1154 19.2198 33.5977 21 35.4093 21H44.1931C46.0048 21 47.4871 19.2198 47.4871 17.0439V3.95604C47.4871 1.78022 46.0048 0 44.1931 0ZM43.5069 13.5494H42.4089V15.5934H40.3502V13.5494H35.8211V11.0769L39.9933 4.08791H42.4089V11.4066H43.5069V13.5494Z" fill="#090F5A"/>
<path d="M53.9093 10.0558C53.8267 9.924 53.7446 9.82506 53.635 9.72619C53.5249 9.62731 53.4152 9.56134 53.2781 9.49542C53.1409 9.4295 53.0038 9.39649 52.8116 9.39649C52.5373 9.39649 52.3176 9.46246 52.2079 9.5943C52.0978 9.72619 51.9882 9.85808 51.9882 10.0229C51.9882 10.1877 52.0708 10.3526 52.2079 10.4514C52.3451 10.5504 52.5373 10.6493 52.7841 10.7482C53.0038 10.8471 53.2506 10.946 53.5249 11.0449C53.7996 11.1437 54.0464 11.2756 54.2662 11.4405C54.4854 11.6053 54.6776 11.8361 54.8423 12.0998C55.007 12.3636 55.062 12.7262 55.062 13.1547C55.062 13.4844 55.007 13.8141 54.8973 14.1108C54.7872 14.4075 54.5955 14.6712 54.3758 14.869C54.156 15.0998 53.8817 15.2646 53.5249 15.3965C53.1955 15.5284 52.8116 15.5943 52.3726 15.5943C51.8786 15.5943 51.4667 15.5284 51.1373 15.3635C50.7809 15.1987 50.5061 15.0339 50.2869 14.8361C50.0121 14.6383 49.7929 14.3745 49.6282 14.1108L50.6708 12.957C50.7809 13.1218 50.9181 13.2537 51.0552 13.3856C51.1924 13.4844 51.3295 13.5833 51.4942 13.6822C51.6589 13.7482 51.8786 13.8141 52.0978 13.8141C52.3997 13.8141 52.6469 13.7482 52.7841 13.6163C52.9212 13.4844 53.0038 13.3196 53.0038 13.1218C53.0038 12.924 52.9212 12.7592 52.7841 12.6602C52.6469 12.5614 52.4547 12.4624 52.2079 12.3636C51.9882 12.2646 51.7414 12.1657 51.4667 12.0669C51.1924 11.9679 50.9456 11.8361 50.7259 11.6713C50.5061 11.5064 50.3144 11.2756 50.1497 11.0119C49.9851 10.7482 49.93 10.4185 49.93 9.95695C49.93 9.66027 49.9851 9.36353 50.1222 9.06685C50.2594 8.77016 50.424 8.50638 50.6708 8.27561C50.9181 8.04485 51.1924 7.84704 51.4942 7.7152C51.8235 7.58331 52.1529 7.5174 52.5373 7.5174C52.9212 7.5174 53.2781 7.58331 53.5799 7.7152C53.8817 7.84704 54.129 7.97893 54.2932 8.14378C54.5129 8.34159 54.7051 8.5394 54.8698 8.77016L53.9093 10.0558Z" fill="#090F5A"/>
<path d="M58.5219 5.27465C58.5219 5.63729 58.4123 5.934 58.2476 6.16477C58.0554 6.39554 57.7811 6.49441 57.4242 6.49441C57.1224 6.49441 56.8752 6.39554 56.683 6.16477C56.4913 5.934 56.4087 5.63729 56.4087 5.27465C56.4087 4.91201 56.4913 4.61531 56.683 4.38454C56.8752 4.15377 57.1224 4.05487 57.4242 4.05487C57.7811 4.05487 58.0279 4.15377 58.2476 4.38454C58.4123 4.61531 58.5219 4.91201 58.5219 5.27465ZM58.3847 15.5934H56.5183V7.51641H58.3847V15.5934Z" fill="#090F5A"/>
<path d="M61.0473 4.97766H62.6936V7.54908H64.0661V9.52711H62.6936V12.7579C62.6936 13.0216 62.7762 13.2194 62.9408 13.4172C63.1055 13.582 63.2977 13.681 63.517 13.681C63.7092 13.681 63.8739 13.648 64.011 13.6151C64.0936 13.582 64.1482 13.582 64.2032 13.5491V15.4612C64.0936 15.4941 63.9835 15.5601 63.8463 15.5931C63.7367 15.626 63.5996 15.659 63.4624 15.659C63.3248 15.692 63.1606 15.692 62.9684 15.692C62.2821 15.692 61.7606 15.4612 61.3766 14.9997C61.0198 14.5381 60.8276 13.8458 60.8276 12.8897V9.59303H59.6753V7.615H60.279C60.4982 7.615 60.6629 7.51612 60.8276 7.31832C60.9647 7.12051 61.0473 6.85678 61.0473 6.52714V4.97766Z" fill="#090F5A"/>
<path d="M67.0319 12.0988C67.1145 12.5274 67.2792 12.9229 67.5811 13.2197C67.883 13.5493 68.2945 13.7142 68.8162 13.7142C69.1181 13.7142 69.3649 13.6482 69.5847 13.5493C69.8045 13.4504 69.9963 13.3185 70.161 13.2197C70.3257 13.0878 70.4904 12.9229 70.6005 12.7252L71.5613 14.2086C71.369 14.4724 71.1217 14.7032 70.8198 14.9009C70.573 15.0658 70.2711 15.2306 69.9141 15.3625C69.5572 15.4944 69.1456 15.5603 68.679 15.5603C68.1849 15.5603 67.7183 15.4614 67.2792 15.2306C66.8396 15.0328 66.4556 14.7361 66.1537 14.3405C65.8243 13.9779 65.577 13.5493 65.3847 13.0548C65.1929 12.5603 65.1104 12.0328 65.1104 11.4724C65.1104 10.9119 65.1929 10.3845 65.3847 9.88999C65.577 9.39544 65.8243 8.96693 66.1537 8.60427C66.4831 8.24161 66.8396 7.94493 67.2516 7.71416C67.6632 7.51635 68.1298 7.38446 68.624 7.38446C69.0906 7.38446 69.5572 7.48339 69.9692 7.6812C70.3808 7.87901 70.7377 8.14274 71.0396 8.47238C71.3415 8.80208 71.5883 9.23065 71.7531 9.69218C71.9178 10.1537 72.0004 10.6812 72.0004 11.2087C72.0004 11.3405 72.0004 11.4724 72.0004 11.5713C72.0004 11.6702 71.9728 11.7691 71.9728 11.8351C71.9728 11.9339 71.9453 11.9669 71.9453 11.9669H67.0319V12.0988ZM68.5964 9.39544C68.1849 9.39544 67.8554 9.49438 67.5811 9.72514C67.3062 9.95591 67.1145 10.2196 67.0319 10.5823H70.1064C70.0238 10.2526 69.8591 9.95591 69.6122 9.72514C69.3379 9.52733 69.0084 9.39544 68.5964 9.39544Z" fill="#090F5A"/>
</svg>
