<svg width="73" height="71" viewBox="0 0 73 71" fill="none" xmlns="http://www.w3.org/2000/svg">
<path d="M36.4232 0C16.4921 0 0.13602 13.6144 0.00162327 30.3603C-0.0924547 40.7089 3.89914 48.1545 12.9172 54.4711C13.0452 54.5896 13.1663 54.7153 13.28 54.8475C13.5488 58.6643 11.1835 62.9113 6.25108 67.6958L5.90165 68.0318C5.70637 68.2267 5.57581 68.4771 5.52772 68.7488C5.47963 69.0205 5.51635 69.3004 5.63286 69.5505C5.74083 69.7838 5.91342 69.9812 6.13019 70.1194C6.34696 70.2575 6.59881 70.3306 6.85586 70.33H7.03059C17.3657 69.5236 27.9159 61.9302 29.7975 60.5056L30.6173 60.4249C31.8134 60.5728 35.2405 60.9088 36.477 60.9088C56.5559 60.9088 72.8852 47.1868 72.8852 30.4409C72.8852 13.6951 56.5021 0 36.4232 0ZM36.3292 58.0461C35.1733 58.0461 31.4505 57.7773 30.7651 57.6564C30.618 57.6363 30.4688 57.6363 30.3216 57.6564L28.9776 57.8714C28.753 57.9102 28.541 58.0024 28.3594 58.1402C28.2653 58.2208 19.7177 64.86 10.6459 67.0104C14.5837 62.5215 16.3577 58.2343 15.9142 54.2292C15.9128 54.1227 15.89 54.0176 15.847 53.9201C15.5874 53.3408 15.1908 52.8334 14.6912 52.4417L14.5434 52.3208C6.14356 46.4745 2.60893 39.9159 2.68957 30.3872C2.8374 15.1062 17.9571 2.68794 36.4232 2.68794C54.8894 2.68794 70.1972 15.1062 70.1972 30.3737C70.1972 45.6413 55.0103 58.0461 36.3292 58.0461Z" fill="#E30611"/>
<path d="M20.9667 25.979C19.9035 25.979 18.8641 26.2943 17.98 26.885C17.096 27.4757 16.4069 28.3153 16 29.2976C15.5932 30.2799 15.4867 31.3609 15.6941 32.4037C15.9015 33.4465 16.4136 34.4044 17.1654 35.1562C17.9172 35.908 18.8751 36.42 19.9179 36.6275C20.9608 36.8349 22.0416 36.7284 23.024 36.3216C24.0063 35.9147 24.8459 35.2256 25.4366 34.3416C26.0273 33.4575 26.3426 32.4181 26.3426 31.3549C26.3426 29.9291 25.7762 28.5617 24.768 27.5536C23.7599 26.5454 22.3925 25.979 20.9667 25.979ZM20.9667 34.0428C20.4351 34.0428 19.9154 33.8852 19.4734 33.5898C19.0313 33.2945 18.6868 32.8747 18.4834 32.3835C18.2799 31.8924 18.2267 31.3519 18.3304 30.8305C18.4341 30.3091 18.6901 29.8301 19.066 29.4542C19.442 29.0783 19.9209 28.8223 20.4423 28.7186C20.9637 28.6149 21.5042 28.6681 21.9953 28.8716C22.4865 29.075 22.9063 29.4195 23.2017 29.8615C23.497 30.3036 23.6546 30.8233 23.6546 31.3549C23.6546 32.0678 23.3715 32.7515 22.8674 33.2555C22.3633 33.7596 21.6796 34.0428 20.9667 34.0428Z" fill="#E30611"/>
<path d="M35.7504 25.979C34.6871 25.979 33.6478 26.2943 32.7637 26.885C31.8797 27.4757 31.1906 28.3153 30.7837 29.2976C30.3768 30.2799 30.2704 31.3609 30.4778 32.4037C30.6852 33.4465 31.1973 34.4044 31.9491 35.1562C32.7009 35.908 33.6588 36.42 34.7016 36.6275C35.7444 36.8349 36.8253 36.7284 37.8077 36.3216C38.79 35.9147 39.6296 35.2256 40.2203 34.3416C40.811 33.4575 41.1263 32.4181 41.1263 31.3549C41.1263 29.9291 40.5599 28.5617 39.5517 27.5536C38.5435 26.5454 37.1762 25.979 35.7504 25.979ZM35.7504 34.0428C35.2188 34.0428 34.6991 33.8852 34.2571 33.5898C33.815 33.2945 33.4705 32.8747 33.2671 32.3835C33.0636 31.8924 33.0104 31.3519 33.1141 30.8305C33.2178 30.3091 33.4738 29.8301 33.8497 29.4542C34.2256 29.0783 34.7046 28.8223 35.226 28.7186C35.7474 28.6149 36.2879 28.6681 36.779 28.8716C37.2702 29.075 37.69 29.4195 37.9853 29.8615C38.2807 30.3036 38.4383 30.8233 38.4383 31.3549C38.4383 32.0678 38.1551 32.7515 37.6511 33.2555C37.147 33.7596 36.4633 34.0428 35.7504 34.0428Z" fill="#E30611"/>
<path d="M50.5341 25.979C49.4708 25.979 48.4315 26.2943 47.5474 26.885C46.6634 27.4757 45.9743 28.3153 45.5674 29.2976C45.1605 30.2799 45.0541 31.3609 45.2615 32.4037C45.4689 33.4465 45.9809 34.4044 46.7328 35.1562C47.4846 35.908 48.4425 36.42 49.4853 36.6275C50.5281 36.8349 51.609 36.7284 52.5913 36.3216C53.5737 35.9147 54.4133 35.2256 55.004 34.3416C55.5947 33.4575 55.91 32.4181 55.91 31.3549C55.91 29.9291 55.3436 28.5617 54.3354 27.5536C53.3272 26.5454 51.9599 25.979 50.5341 25.979ZM50.5341 34.0428C50.0025 34.0428 49.4828 33.8852 49.0408 33.5898C48.5987 33.2945 48.2542 32.8747 48.0508 32.3835C47.8473 31.8924 47.7941 31.3519 47.8978 30.8305C48.0015 30.3091 48.2575 29.8301 48.6334 29.4542C49.0093 29.0783 49.4883 28.8223 50.0097 28.7186C50.5311 28.6149 51.0716 28.6681 51.5627 28.8716C52.0539 29.075 52.4737 29.4195 52.769 29.8615C53.0644 30.3036 53.222 30.8233 53.222 31.3549C53.222 32.0678 52.9388 32.7515 52.4348 33.2555C51.9307 33.7596 51.247 34.0428 50.5341 34.0428Z" fill="#E30611"/>
</svg>
