<svg width="67" height="74" viewBox="0 0 67 74" fill="none" xmlns="http://www.w3.org/2000/svg">
<path d="M64.9741 63.8927C64.0923 61.007 59.3629 58.5488 54.7671 56.2375C53.5647 55.6229 52.4024 55.0351 51.387 54.4606C51.077 54.2834 50.7092 54.2368 50.3647 54.3307C50.0202 54.4247 49.7272 54.6516 49.55 54.9616C49.3728 55.2716 49.3261 55.6394 49.4201 55.9839C49.514 56.3284 49.741 56.6214 50.051 56.7986C51.0931 57.3731 52.2955 57.9877 53.5246 58.6156C57.0382 60.4192 61.8478 62.8774 62.3956 64.681C63.5312 68.4351 63.5846 68.9695 63.5846 70.025C63.6069 70.2228 63.5696 70.4228 63.4777 70.5994C62.7013 70.8225 61.8869 70.8817 61.0863 70.7731H59.8171H5.44222C4.45358 70.7731 3.09087 70.7731 2.77023 70.4925C2.66621 70.3443 2.6145 70.1657 2.62327 69.9848C2.73015 69.4905 3.13095 67.727 3.95927 64.6409C4.56046 62.3029 10.5056 58.9228 21.5543 54.6209C23.1058 54.1059 24.4902 53.183 25.5623 51.9489C25.7749 51.6655 25.8661 51.3092 25.816 50.9584C25.7659 50.6077 25.5785 50.2912 25.2951 50.0786C25.0116 49.866 24.6553 49.7747 24.3045 49.8248C23.9538 49.8749 23.6373 50.0623 23.4247 50.3458C22.6586 51.1794 21.6932 51.8046 20.6191 52.1627C11.708 55.623 2.44959 59.7512 1.34072 64.0264C0.392167 67.7137 0.00472873 69.5173 0.00472873 69.5974C-0.00121563 69.6864 -0.00121563 69.7757 0.00472873 69.8646C-0.0196807 70.3311 0.0505923 70.7976 0.211317 71.2362C0.372041 71.6747 0.619886 72.0762 0.939919 72.4164C2.07551 73.5252 3.75887 73.4852 5.5491 73.4585H59.8973H61.0729H62.2085C62.7801 73.5198 63.3582 73.4663 63.9088 73.3011C64.4594 73.1359 64.9715 72.8623 65.4149 72.4965C65.732 72.1685 65.9776 71.7784 66.1363 71.3507C66.2949 70.923 66.3632 70.467 66.3368 70.0116C66.2833 68.5821 66.1631 67.8072 64.9741 63.8927Z" fill="#E30611"/>
<path d="M11.7475 41.3143H15.7555C16.0989 41.3291 16.4418 41.274 16.7633 41.1523C17.0849 41.0305 17.3783 40.8448 17.6259 40.6063C17.9585 40.1687 18.2006 39.6692 18.3383 39.1371C18.4759 38.605 18.5062 38.0508 18.4275 37.5068V37.3732C18.6368 37.5166 18.8607 37.6375 19.0955 37.7339C19.7485 39.2925 20.554 40.7827 21.5002 42.1828L22.2484 43.3584C23.0529 44.8025 24.1549 46.0594 25.4815 47.0457C27.6529 48.7829 30.2973 49.8258 33.0699 50.0384C33.3014 50.0499 33.5332 50.0499 33.7646 50.0384C36.4911 49.8934 39.079 48.7911 41.0725 46.9256C42.2709 45.9383 43.2764 44.7379 44.0384 43.3851C44.3056 42.9443 44.5728 42.5301 44.8267 42.1293C45.7834 40.7217 46.5979 39.2224 47.2582 37.6537C47.4548 37.5698 47.6427 37.4669 47.8193 37.3464V37.4667C47.7383 38.0107 47.7675 38.5654 47.9052 39.0979C48.0429 39.6304 48.2863 40.1297 48.6209 40.5662C48.7735 40.7214 48.9493 40.8521 49.1419 40.9536C49.0484 44.0932 48.2735 50.1854 45.321 51.2408C44.6546 50.7756 43.8625 50.5239 43.0498 50.5193C42.7351 50.5211 42.4216 50.557 42.1146 50.6262L35.6217 52.176C34.6637 52.4017 33.8223 52.9721 33.2577 53.7783C32.6932 54.5846 32.4451 55.5703 32.5607 56.5477C32.6763 57.5252 33.1475 58.4259 33.8844 59.0782C34.6214 59.7306 35.5727 60.089 36.5569 60.0851C36.8671 60.0825 37.1761 60.0466 37.4787 59.9781L43.9716 58.4284C44.484 58.3074 44.9675 58.0867 45.3945 57.7788C45.8215 57.4709 46.1837 57.082 46.4603 56.6341C46.737 56.1862 46.9227 55.6883 47.0069 55.1686C47.0911 54.649 47.072 54.1178 46.9509 53.6055V53.4719C51.0791 51.3476 51.7605 44.347 51.854 41.2743H54.526C55.6213 41.2139 56.6842 40.8803 57.6176 40.3039C58.551 39.7275 59.3253 38.9266 59.8699 37.9743C60.7353 36.067 61.183 33.9968 61.183 31.9023C61.183 29.8078 60.7353 27.7375 59.8699 25.8302C59.3195 24.8862 58.5429 24.0939 57.61 23.5249C56.6771 22.9558 55.6172 22.6278 54.526 22.5704C54.6885 19.6672 54.2569 16.7614 53.2578 14.0307C52.2586 11.3001 50.7129 8.80199 48.7151 6.68926C46.7173 4.57653 44.3095 2.89359 41.6389 1.74342C38.9683 0.593248 36.0912 0 33.1835 0C30.2758 0 27.3986 0.593248 24.7281 1.74342C22.0575 2.89359 19.6497 4.57653 17.6519 6.68926C15.6541 8.80199 14.1083 11.3001 13.1092 14.0307C12.1101 16.7614 11.6785 19.6672 11.841 22.5704C10.7472 22.6306 9.6857 22.9626 8.75258 23.5365C7.81947 24.1104 7.04423 24.9079 6.49705 25.8569C5.62967 27.7661 5.18091 29.8387 5.18091 31.9357C5.18091 34.0326 5.62967 36.1053 6.49705 38.0144C7.034 38.9533 7.79389 39.7455 8.7096 40.321C9.62531 40.8965 10.6687 41.2377 11.7475 41.3143ZM43.3571 55.8633L36.8642 57.4131C36.6931 57.4548 36.5154 57.4624 36.3414 57.4352C36.1674 57.4081 36.0005 57.3468 35.8503 57.255C35.7 57.1631 35.5695 57.0424 35.466 56.8998C35.3626 56.7573 35.2884 56.5958 35.2476 56.4244C35.2058 56.2534 35.1983 56.0757 35.2255 55.9017C35.2526 55.7277 35.3139 55.5608 35.4057 55.4105C35.4976 55.2603 35.6183 55.1297 35.7608 55.0263C35.9033 54.9229 36.0649 54.8486 36.2362 54.8079L42.7425 53.2715C42.8445 53.2576 42.9479 53.2576 43.0498 53.2715C43.4041 53.2308 43.7601 53.3324 44.0395 53.5541C44.3188 53.7759 44.4987 54.0995 44.5394 54.4538C44.5802 54.8081 44.4785 55.1641 44.2568 55.4435C44.035 55.7229 43.7114 55.9028 43.3571 55.9435V55.8633ZM46.7371 34.7146C46.5931 34.982 46.3551 35.1867 46.0691 35.289C45.8289 35.3231 45.6025 35.4219 45.4142 35.5749C45.2259 35.7279 45.0829 35.9293 45.0004 36.1574C44.368 37.7688 43.5521 39.3019 42.5688 40.7265L41.7539 42.0625C41.1568 43.1549 40.3591 44.1249 39.4025 44.9216C35.9557 47.7806 33.5108 47.4465 33.4307 47.4332C33.3465 47.4201 33.2609 47.4201 33.1768 47.4332C30.9501 47.2341 28.8312 46.3839 27.0847 44.9883C26.036 44.1908 25.1628 43.1857 24.5196 42.0358C24.2657 41.6083 24.0119 41.2075 23.7581 40.8067C22.7717 39.3787 21.9641 37.8353 21.3533 36.2109C21.2511 35.9664 21.0836 35.7549 20.8692 35.5993C20.6547 35.4438 20.4016 35.3503 20.1375 35.3291C19.8488 35.2314 19.6093 35.0255 19.4695 34.7546C19.3626 34.5675 19.212 34.409 19.0305 34.2927C18.8491 34.1763 18.6422 34.1057 18.4275 34.0866V29.3572C18.5918 29.3821 18.7595 29.3714 18.9193 29.3259C19.0791 29.2804 19.2274 29.2012 19.354 29.0936C19.4806 28.986 19.5827 28.8524 19.6533 28.702C19.7239 28.5516 19.7615 28.3878 19.7635 28.2216C19.9057 25.3435 20.5524 22.5127 21.6739 19.8583C24.0119 14.3941 27.9264 11.6286 33.444 11.6286C46.8039 11.6286 46.8039 27.2731 46.8039 27.9411C46.8039 28.6091 47.846 29.2771 47.846 29.2771V34.1134C47.626 34.1145 47.4096 34.17 47.2162 34.2748C47.0227 34.3797 46.8582 34.5308 46.7371 34.7146ZM57.4251 27.0059C58.1238 28.5578 58.4852 30.2404 58.4852 31.9424C58.4852 33.6443 58.1238 35.3269 57.4251 36.8789C57.0946 37.3735 56.6583 37.7884 56.1476 38.0934C55.6369 38.3984 55.0647 38.5859 54.4725 38.6423H50.4646C50.4431 38.2686 50.4431 37.8939 50.4646 37.5201V26.418C50.4433 26.0442 50.4433 25.6696 50.4646 25.2958H54.4725C55.0625 25.3441 55.6344 25.5226 56.1473 25.8182C56.6601 26.1139 57.101 26.5195 57.4384 27.0059H57.4251ZM33.11 3.90654C38.0448 3.98903 42.7545 5.98612 46.2444 9.47606C49.7344 12.966 51.7314 17.6756 51.8139 22.6104H50.4779C49.9223 22.5956 49.3759 22.7544 48.9148 23.0647C47.8193 17.4268 44.3724 8.80965 33.5375 8.80965C22.7026 8.80965 18.9886 17.7474 17.7327 23.5056L17.6125 23.372C17.3649 23.1334 17.0715 22.9477 16.75 22.826C16.4285 22.7042 16.0856 22.6491 15.7421 22.6639H14.4061C14.4783 17.7185 16.4722 12.9954 19.9658 9.49436C23.4593 5.99335 28.1782 3.98931 33.1234 3.90654H33.11ZM8.79495 27.0326C9.12181 26.5358 9.55758 26.1199 10.0692 25.8166C10.5808 25.5134 11.1547 25.3307 11.7475 25.2824H15.7555C15.7767 25.6562 15.7767 26.0309 15.7555 26.4047V37.5068C15.7769 37.885 15.7769 38.2641 15.7555 38.6423H11.7475C11.1594 38.5952 10.5895 38.4156 10.0806 38.1172C9.57159 37.8188 9.13666 37.4091 8.80831 36.9189C8.10549 35.3661 7.74083 33.6816 7.73853 31.9772C7.73623 30.2727 8.09634 28.5873 8.79495 27.0326Z" fill="#E30611"/>
</svg>
