<svg width="107" height="32" viewBox="0 0 107 32" fill="none" xmlns="http://www.w3.org/2000/svg">
<path d="M5.859 6.464C7.182 6.464 7.854 6.779 7.854 7.745V8.018C7.854 8.942 7.182 9.404 5.754 9.404C4.2 9.404 3.654 8.837 3.507 7.598H0.84C1.029 10.118 2.73 11.231 5.754 11.231C8.925 11.231 10.542 10.034 10.542 7.892C10.542 6.884 9.954 5.771 8.19 5.393C9.681 4.994 10.269 4.07 10.269 3.062C10.269 1.256 8.652 0.184999 5.817 0.184999C2.919 0.184999 1.26 1.193 1.008 3.587H3.675C3.843 2.432 4.41 2.012 5.817 2.012C6.93 2.012 7.581 2.327 7.581 3.146V3.482C7.581 4.259 6.93 4.616 5.796 4.616H4.389V6.464H5.859ZM22.3604 7.976C22.3604 6.758 21.6674 5.792 19.7354 5.456C21.4994 5.057 21.9404 4.007 21.9404 3.02C21.9404 1.403 20.8064 0.416 17.9294 0.416H13.0784V11H18.3914C21.1214 11 22.3604 9.992 22.3604 7.976ZM19.6934 8.018C19.6934 8.921 19.1264 9.236 18.0134 9.236H15.6194V6.359H18.0134C19.1264 6.359 19.6934 6.737 19.6934 7.619V8.018ZM19.2944 3.335V3.671C19.2944 4.427 18.8534 4.763 17.8034 4.763H15.6194V2.18H17.8034C18.9374 2.18 19.2944 2.6 19.2944 3.335ZM29.3898 11.231C33.0858 11.231 34.6608 9.383 34.6608 5.708C34.6608 2.054 33.0858 0.184999 29.3898 0.184999C25.6938 0.184999 24.1188 2.054 24.1188 5.708C24.1188 9.383 25.6938 11.231 29.3898 11.231ZM29.3898 9.32C27.6468 9.32 26.7858 8.417 26.7858 6.464V4.91C26.7858 3.062 27.6468 2.096 29.3898 2.096C31.1328 2.096 31.9938 3.062 31.9938 4.91V6.464C31.9938 8.417 31.1328 9.32 29.3898 9.32ZM46.6266 11V0.416H44.0646V4.574H39.6756V0.416H37.1136V11H39.6756V6.611H44.0646V11H46.6266ZM52.2058 11V6.653H53.2558L56.4898 11H59.5978L55.5028 5.498L59.1358 0.416H56.3218L53.2978 4.616H52.2058V0.416H49.6438V11H52.2058ZM65.7297 11.231C69.4257 11.231 71.0007 9.383 71.0007 5.708C71.0007 2.054 69.4257 0.184999 65.7297 0.184999C62.0337 0.184999 60.4587 2.054 60.4587 5.708C60.4587 9.383 62.0337 11.231 65.7297 11.231ZM65.7297 9.32C63.9867 9.32 63.1257 8.417 63.1257 6.464V4.91C63.1257 3.062 63.9867 2.096 65.7297 2.096C67.4727 2.096 68.3337 3.062 68.3337 4.91V6.464C68.3337 8.417 67.4727 9.32 65.7297 9.32ZM82.7354 7.976C82.7354 6.758 82.0424 5.792 80.1104 5.456C81.8744 5.057 82.3154 4.007 82.3154 3.02C82.3154 1.403 81.1814 0.416 78.3044 0.416H73.4534V11H78.7664C81.4964 11 82.7354 9.992 82.7354 7.976ZM80.0684 8.018C80.0684 8.921 79.5014 9.236 78.3884 9.236H75.9944V6.359H78.3884C79.5014 6.359 80.0684 6.737 80.0684 7.619V8.018ZM79.6694 3.335V3.671C79.6694 4.427 79.2284 4.763 78.1784 4.763H75.9944V2.18H78.1784C79.3124 2.18 79.6694 2.6 79.6694 3.335ZM1.008 25.015C1.008 29.236 2.541 31.231 6.3 31.231C9.891 31.231 11.571 29.215 11.571 25.771C11.571 22.411 10.122 20.479 7.077 20.479C5.166 20.479 3.864 21.298 3.108 22.831C3.465 18.904 4.725 18.127 7.707 17.98C9.744 17.896 10.605 17.854 11.088 17.791V15.544C10.563 15.628 9.681 15.712 7.539 15.775C2.982 15.943 1.008 17.791 1.008 25.015ZM6.3 29.32C4.494 29.32 3.675 28.459 3.675 26.422V25.288C3.675 23.356 4.557 22.39 6.3 22.39C8.022 22.39 8.904 23.356 8.904 25.288V26.422C8.904 28.459 8.064 29.32 6.3 29.32ZM18.5578 29.341C16.9408 29.341 16.0588 28.312 16.0588 26.464V25.666H23.4088V25.12C23.4088 21.739 21.7078 20.185 18.5578 20.185C15.0928 20.185 13.4548 22.159 13.4548 25.729C13.4548 29.257 15.0508 31.231 18.5578 31.231C21.3298 31.231 23.1148 30.118 23.4508 27.577H20.8888C20.7208 28.942 19.7548 29.341 18.5578 29.341ZM18.5368 22.075C19.9648 22.075 20.6158 22.726 20.7418 24.028H16.1008C16.2688 22.705 17.0248 22.075 18.5368 22.075ZM34.9468 27.619H32.3638C32.1958 28.921 31.4398 29.32 30.2428 29.32C28.7098 29.32 27.9958 28.375 27.9958 26.506V24.847C27.9958 22.999 28.7098 22.096 30.2428 22.096C31.4398 22.096 32.1748 22.579 32.3008 23.86H34.8838C34.6528 21.067 32.8888 20.185 30.2428 20.185C26.8618 20.185 25.3288 22.096 25.3288 25.708C25.3288 29.32 26.8408 31.231 30.2428 31.231C32.9728 31.231 34.6108 30.16 34.9468 27.619ZM46.6011 31V20.416H37.2981V31H39.8601V22.453H44.0391V31H46.6011ZM48.5103 31H49.0773C51.9753 31 52.7523 29.782 52.7523 25.498V22.453H56.0703V31H58.6533V20.416H50.4213V25.498C50.4213 28.102 50.1483 28.732 48.9303 28.732H48.5103V31ZM61.1154 28.123C61.1154 29.908 62.3124 31.231 64.7484 31.231C66.3024 31.231 67.4574 30.706 68.2134 29.656V31H70.6704V24.07C70.6704 21.361 69.0324 20.185 66.1344 20.185C63.2154 20.185 61.6404 21.424 61.4934 23.692H64.0974C64.2234 22.558 64.9374 22.075 66.1554 22.075C67.3944 22.075 68.0874 22.579 68.0874 24.028V24.511L65.3364 24.763C62.4594 25.036 61.1154 25.96 61.1154 28.123ZM65.5254 29.425C64.3704 29.425 63.7194 29.005 63.7194 28.186V27.745C63.7194 26.8 64.3284 26.464 65.5674 26.338L68.0874 26.086V27.01C68.0874 28.606 67.0374 29.425 65.5254 29.425ZM81.6664 22.453V20.416H72.2794V22.453H75.7024V31H78.2644V22.453H81.6664ZM93.1178 31V20.416H90.5558V24.574H86.1668V20.416H83.6048V31H86.1668V26.611H90.5558V31H93.1178ZM100.839 31.231C104.535 31.231 106.11 29.383 106.11 25.708C106.11 22.054 104.535 20.185 100.839 20.185C97.143 20.185 95.568 22.054 95.568 25.708C95.568 29.383 97.143 31.231 100.839 31.231ZM100.839 29.32C99.096 29.32 98.235 28.417 98.235 26.464V24.91C98.235 23.062 99.096 22.096 100.839 22.096C102.582 22.096 103.443 23.062 103.443 24.91V26.464C103.443 28.417 102.582 29.32 100.839 29.32Z" fill="#333333"/>
</svg>
