<svg width="178" height="24" viewBox="0 0 178 24" fill="none" xmlns="http://www.w3.org/2000/svg">
<path d="M6.216 22.231C9.912 22.231 11.487 20.383 11.487 16.708C11.487 13.054 9.912 11.185 6.216 11.185C2.52 11.185 0.945 13.054 0.945 16.708C0.945 20.383 2.52 22.231 6.216 22.231ZM6.216 20.32C4.473 20.32 3.612 19.417 3.612 17.464V15.91C3.612 14.062 4.473 13.096 6.216 13.096C7.959 13.096 8.82 14.062 8.82 15.91V17.464C8.82 19.417 7.959 20.32 6.216 20.32ZM21.9271 13.453V11.416H12.5401V13.453H15.9631V22H18.5251V13.453H21.9271ZM36.6035 19.3C34.0235 19.3 32.8835 18.28 32.7335 15.82H28.7135C28.9535 20.59 31.6235 22.36 36.6035 22.36C41.6135 22.36 44.1335 20.02 44.1335 16.03C44.1335 13.36 42.6035 11.62 40.0535 11.05C42.2435 10.39 43.4435 8.59 43.4435 6.4C43.4435 2.56 40.6535 0.969999 36.5735 0.969999C32.6135 0.969999 29.4935 2.32 29.3135 7H33.3335C33.4535 4.66 34.5635 4 36.6035 4C38.3735 4 39.5135 4.72 39.5135 6.43V7.12C39.5135 8.77 38.5835 9.76 36.6635 9.76H34.8035V12.73H36.6635C39.0035 12.73 40.2035 13.63 40.2035 15.55V16.39C40.2035 18.43 38.9135 19.3 36.6035 19.3ZM56.7844 8.68L61.7944 4.9V18.85H56.7244V22H70.5244V18.85H65.6044V1.3H61.7944L56.7844 4.96V8.68ZM82.1852 22.33C87.6152 22.33 90.2852 20.32 90.2852 16.24C90.2852 13.51 88.7552 11.71 86.3252 10.99C88.4252 10.33 89.5352 8.71 89.5352 6.55C89.5352 2.68 86.7452 0.969999 82.1852 0.969999C77.6852 0.969999 74.8352 2.68 74.8352 6.55C74.8352 8.71 75.9452 10.33 78.1052 10.99C75.6452 11.71 74.0852 13.51 74.0852 16.24C74.0852 20.32 76.8452 22.33 82.1852 22.33ZM82.1852 12.64C84.8552 12.64 86.3552 13.6 86.3552 15.67V16.36C86.3552 18.46 84.7952 19.36 82.1852 19.36C79.5452 19.36 78.0152 18.46 78.0152 16.36V15.67C78.0152 13.57 79.4852 12.64 82.1852 12.64ZM82.1852 9.79C79.8752 9.79 78.7652 8.98 78.7652 7.09V6.61C78.7652 4.78 79.9052 3.94 82.1852 3.94C84.4652 3.94 85.6052 4.78 85.6052 6.61V7.09C85.6052 8.95 84.4652 9.79 82.1852 9.79ZM109.566 11.65C109.566 4.99 107.076 0.969999 101.316 0.969999C95.5561 0.969999 93.0961 4.99 93.0961 11.65C93.0961 18.37 95.5561 22.33 101.316 22.33C107.076 22.33 109.566 18.37 109.566 11.65ZM105.576 12.79C105.576 16.75 104.616 19.3 101.316 19.3C98.0461 19.27 97.0561 16.75 97.0561 12.79V10.51C97.0561 6.64 98.0461 4 101.316 4C104.616 4 105.576 6.67 105.576 10.51V12.79ZM127.935 11.92C127.935 9.169 126.339 7.51 123.126 7.51H117.645V14.041H116.196V16.12H117.645V17.485H116.196V19.375H117.645V22H120.312V19.375H124.827V17.485H120.312V16.12H123.126C126.339 16.12 127.935 14.587 127.935 11.92ZM125.142 12.277C125.142 13.285 124.491 14.041 122.874 14.041H120.312V9.694H122.874C124.47 9.694 125.142 10.408 125.142 11.626V12.277ZM132.612 23.995L139.227 6.46H136.749L130.134 23.995H132.612ZM144.419 11.416H140.555V22H142.886V13.537L145.427 20.803H148.115L150.614 13.411V22H153.113V11.416H149.333L146.918 18.577L144.419 11.416ZM160.677 20.341C159.06 20.341 158.178 19.312 158.178 17.464V16.666H165.528V16.12C165.528 12.739 163.827 11.185 160.677 11.185C157.212 11.185 155.574 13.159 155.574 16.729C155.574 20.257 157.17 22.231 160.677 22.231C163.449 22.231 165.234 21.118 165.57 18.577H163.008C162.84 19.942 161.874 20.341 160.677 20.341ZM160.656 13.075C162.084 13.075 162.735 13.726 162.861 15.028H158.22C158.388 13.705 159.144 13.075 160.656 13.075ZM177.066 18.619H174.483C174.315 19.921 173.559 20.32 172.362 20.32C170.829 20.32 170.115 19.375 170.115 17.506V15.847C170.115 13.999 170.829 13.096 172.362 13.096C173.559 13.096 174.294 13.579 174.42 14.86H177.003C176.772 12.067 175.008 11.185 172.362 11.185C168.981 11.185 167.448 13.096 167.448 16.708C167.448 20.32 168.96 22.231 172.362 22.231C175.092 22.231 176.73 21.16 177.066 18.619Z" fill="#333333"/>
</svg>
