<svg width="128" height="23" viewBox="0 0 128 23" fill="none" xmlns="http://www.w3.org/2000/svg">
<path d="M6.216 22.231C9.912 22.231 11.487 20.383 11.487 16.708C11.487 13.054 9.912 11.185 6.216 11.185C2.52 11.185 0.945 13.054 0.945 16.708C0.945 20.383 2.52 22.231 6.216 22.231ZM6.216 20.32C4.473 20.32 3.612 19.417 3.612 17.464V15.91C3.612 14.062 4.473 13.096 6.216 13.096C7.959 13.096 8.82 14.062 8.82 15.91V17.464C8.82 19.417 7.959 20.32 6.216 20.32ZM21.9271 13.453V11.416H12.5401V13.453H15.9631V22H18.5251V13.453H21.9271ZM30.1535 8.68L35.1635 4.9V18.85H30.0935V22H43.8935V18.85H38.9735V1.3H35.1635L30.1535 4.96V8.68ZM63.3244 19.3C60.9244 19.3 59.6044 18.46 59.3044 16H55.2844C55.6744 20.44 58.5844 22.33 63.3244 22.33C68.0644 22.33 70.8244 19.9 70.8244 15.1C70.8244 10.48 68.2744 8.29 64.0744 8.29C61.9144 8.29 60.5344 9.01 59.7244 9.88L60.2644 4.66H69.4144V1.3H57.1744L56.0944 12.04L59.7544 12.76C60.5944 11.47 61.8544 11.08 63.2944 11.08C65.5144 11.08 66.8644 12.04 66.8644 14.62V15.64C66.8644 18.28 65.6044 19.3 63.3244 19.3ZM81.8252 19.15C79.9052 19.15 78.9152 18.46 78.6152 16.93H74.6852C74.9852 20.05 77.1152 22.21 81.7052 22.21C86.4752 22.21 89.9552 19.96 89.9552 11.35C89.9552 3.43 87.3152 0.849999 81.9752 0.849999C76.9952 0.849999 74.2952 3.4 74.2952 7.84C74.2952 12.25 76.9052 14.44 80.8652 14.44C83.2952 14.44 85.0352 13.48 85.9952 12.16V12.67C85.9952 17.77 84.4052 19.15 81.8252 19.15ZM81.9752 3.85C84.5552 3.85 85.7852 4.99 85.7852 7.81C85.7852 10.33 84.5552 11.62 81.9752 11.62C79.6352 11.62 78.2552 10.72 78.2552 8.35V7.39C78.2552 4.93 79.6352 3.85 81.9752 3.85ZM101.526 4C103.536 4 104.676 4.78 104.676 6.76V7.6C104.676 12.49 93.9961 10.78 93.9961 20.11V22H108.666V18.64H98.0761C98.6461 13.06 108.636 14.59 108.636 7.03C108.636 2.65 105.996 0.969999 101.526 0.969999C97.2361 0.969999 94.4461 2.65 94.2061 7.3H98.1961C98.3761 4.78 99.4561 4 101.526 4ZM127.935 11.92C127.935 9.169 126.339 7.51 123.126 7.51H117.645V14.041H116.196V16.12H117.645V17.485H116.196V19.375H117.645V22H120.312V19.375H124.827V17.485H120.312V16.12H123.126C126.339 16.12 127.935 14.587 127.935 11.92ZM125.142 12.277C125.142 13.285 124.491 14.041 122.874 14.041H120.312V9.694H122.874C124.47 9.694 125.142 10.408 125.142 11.626V12.277Z" fill="#333333"/>
</svg>
